<?xml version="1.0" encoding="UTF-8"?>
<svg id="_x32_" xmlns="http://www.w3.org/2000/svg" version="1.1" viewBox="0 0 800 800">
  <!-- Generator: Adobe Illustrator 29.7.1, SVG Export Plug-In . SVG Version: 2.1.1 Build 8)  -->
  <defs>
    <style>
      .st0 {
        fill: #fff;
      }
    </style>
  </defs>
  <path class="st0" d="M784.88,480.16l-60.95-48.13c-9.71-7.67-15.1-19.42-15.11-31.79v-.39c-.02-12.4,5.38-24.18,15.1-31.87l60.95-48.13c13.96-11.02,18.9-29.98,12.09-46.41l-26.77-64.63c-6.81-16.43-23.7-26.34-41.36-24.27l-77.13,9.06c-12.31,1.45-24.46-3.07-33.22-11.85-.09-.09-.18-.19-.28-.28-8.75-8.75-13.24-20.88-11.8-33.16l9.06-77.13c2.08-17.66-7.84-34.56-24.27-41.36l-64.64-26.77c-16.43-6.81-35.38-1.87-46.41,12.09l-48.13,60.95c-7.67,9.71-19.42,15.1-31.8,15.11h-.39c-12.4.02-24.18-5.37-31.87-15.1l-48.13-60.95c-11.02-13.96-29.98-18.89-46.41-12.09l-64.63,26.77c-16.43,6.81-26.34,23.7-24.27,41.36l9.06,77.13c1.45,12.31-3.07,24.46-11.85,33.21l-.28.28c-8.75,8.75-20.88,13.25-33.17,11.8l-77.13-9.06c-17.66-2.08-34.56,7.84-41.36,24.27L3.03,273.43c-6.81,16.43-1.87,35.38,12.09,46.41l60.95,48.13c9.71,7.67,15.1,19.42,15.11,31.79v.39c.02,12.4-5.37,24.18-15.1,31.87l-60.95,48.14c-13.96,11.02-18.89,29.98-12.09,46.41l26.77,64.63c6.81,16.43,23.7,26.34,41.36,24.27l77.13-9.06c12.32-1.45,24.46,3.07,33.22,11.85.09.09.18.19.28.28,8.75,8.75,13.24,20.87,11.8,33.17l-9.06,77.13c-2.08,17.66,7.84,34.56,24.27,41.36l64.63,26.77c16.43,6.81,35.38,1.87,46.41-12.09l48.13-60.95c7.67-9.71,19.42-15.1,31.79-15.11h.39c12.4-.02,24.18,5.38,31.87,15.1l48.13,60.95c11.02,13.96,29.98,18.9,46.41,12.09l64.63-26.77c16.43-6.81,26.34-23.7,24.27-41.36l-9.06-77.13c-1.45-12.31,3.07-24.46,11.85-33.21l.28-.28c8.75-8.75,20.87-13.24,33.16-11.8l77.13,9.06c17.66,2.08,34.56-7.84,41.36-24.27l26.77-64.63c6.81-16.43,1.87-35.39-12.09-46.41ZM439.52,515.15c-62,25.68-133.08-3.76-158.76-65.76-25.68-62,3.76-133.08,65.76-158.76,62-25.68,133.08,3.76,158.76,65.76,25.68,62-3.76,133.08-65.76,158.76Z"/>
</svg>